<mxfile host="app.diagrams.net" modified="2024-06-20T16:43:18.243Z" agent="Mozilla/5.0 (Windows NT 10.0; Win64; x64) AppleWebKit/537.36 (KHTML, like Gecko) Chrome/126.0.0.0 Safari/537.36" etag="6NuolTQAAt9PCza8mChO" version="24.5.5" type="device">
  <diagram name="Page-1" id="W4wpiNqgCo3GhEdov64F">
    <mxGraphModel dx="1195" dy="622" grid="1" gridSize="10" guides="1" tooltips="1" connect="1" arrows="1" fold="1" page="1" pageScale="1" pageWidth="827" pageHeight="1169" math="0" shadow="0">
      <root>
        <mxCell id="0" />
        <mxCell id="1" parent="0" />
        <mxCell id="fZ35gPJdgRmd73TTye3Q-48" style="rounded=0;orthogonalLoop=1;jettySize=auto;html=1;endArrow=none;endFill=0;fontFamily=Times New Roman;fontSize=18;" parent="1" source="fZ35gPJdgRmd73TTye3Q-1" target="fZ35gPJdgRmd73TTye3Q-3" edge="1">
          <mxGeometry relative="1" as="geometry" />
        </mxCell>
        <mxCell id="fZ35gPJdgRmd73TTye3Q-1" value="email" style="ellipse;whiteSpace=wrap;html=1;fillColor=#fff2cc;strokeColor=#d6b656;fontFamily=Times New Roman;fontSize=18;" parent="1" vertex="1">
          <mxGeometry x="105" y="10" width="90" height="60" as="geometry" />
        </mxCell>
        <mxCell id="fZ35gPJdgRmd73TTye3Q-41" style="edgeStyle=orthogonalEdgeStyle;rounded=0;orthogonalLoop=1;jettySize=auto;html=1;entryX=0;entryY=0.5;entryDx=0;entryDy=0;startArrow=ERone;startFill=0;endArrow=none;endFill=0;fontFamily=Times New Roman;fontSize=18;" parent="1" source="fZ35gPJdgRmd73TTye3Q-3" target="fZ35gPJdgRmd73TTye3Q-11" edge="1">
          <mxGeometry relative="1" as="geometry" />
        </mxCell>
        <mxCell id="fZ35gPJdgRmd73TTye3Q-70" style="edgeStyle=orthogonalEdgeStyle;rounded=0;orthogonalLoop=1;jettySize=auto;html=1;entryX=0.5;entryY=0;entryDx=0;entryDy=0;endArrow=none;endFill=0;startArrow=ERone;startFill=0;fontFamily=Times New Roman;fontSize=18;" parent="1" source="fZ35gPJdgRmd73TTye3Q-3" target="fZ35gPJdgRmd73TTye3Q-69" edge="1">
          <mxGeometry relative="1" as="geometry" />
        </mxCell>
        <mxCell id="fZ35gPJdgRmd73TTye3Q-3" value="User" style="rounded=0;whiteSpace=wrap;html=1;fillColor=#d5e8d4;strokeColor=#82b366;fontFamily=Times New Roman;fontSize=20;" parent="1" vertex="1">
          <mxGeometry x="145" y="120" width="120" height="60" as="geometry" />
        </mxCell>
        <mxCell id="fZ35gPJdgRmd73TTye3Q-54" style="rounded=0;orthogonalLoop=1;jettySize=auto;html=1;endArrow=none;endFill=0;fontFamily=Times New Roman;fontSize=18;" parent="1" source="fZ35gPJdgRmd73TTye3Q-4" target="fZ35gPJdgRmd73TTye3Q-3" edge="1">
          <mxGeometry relative="1" as="geometry" />
        </mxCell>
        <mxCell id="fZ35gPJdgRmd73TTye3Q-4" value="profile_image&lt;div style=&quot;font-size: 18px;&quot;&gt;_url&lt;/div&gt;" style="ellipse;whiteSpace=wrap;html=1;fillColor=#fff2cc;strokeColor=#d6b656;fontFamily=Times New Roman;fontSize=18;" parent="1" vertex="1">
          <mxGeometry x="50" y="250" width="120" height="70" as="geometry" />
        </mxCell>
        <mxCell id="fZ35gPJdgRmd73TTye3Q-46" style="rounded=0;orthogonalLoop=1;jettySize=auto;html=1;endArrow=none;endFill=0;fontFamily=Times New Roman;fontSize=18;" parent="1" source="fZ35gPJdgRmd73TTye3Q-5" target="fZ35gPJdgRmd73TTye3Q-3" edge="1">
          <mxGeometry relative="1" as="geometry" />
        </mxCell>
        <mxCell id="fZ35gPJdgRmd73TTye3Q-5" value="&lt;span style=&quot;font-size: 18px;&quot;&gt;id&lt;/span&gt;" style="ellipse;whiteSpace=wrap;html=1;fillColor=#fff2cc;strokeColor=#d6b656;fontFamily=Times New Roman;fontSize=18;" parent="1" vertex="1">
          <mxGeometry x="35" y="80" width="90" height="60" as="geometry" />
        </mxCell>
        <mxCell id="fZ35gPJdgRmd73TTye3Q-47" style="rounded=0;orthogonalLoop=1;jettySize=auto;html=1;endArrow=none;endFill=0;fontFamily=Times New Roman;fontSize=18;" parent="1" source="fZ35gPJdgRmd73TTye3Q-6" target="fZ35gPJdgRmd73TTye3Q-3" edge="1">
          <mxGeometry relative="1" as="geometry" />
        </mxCell>
        <mxCell id="fZ35gPJdgRmd73TTye3Q-6" value="full_name" style="ellipse;whiteSpace=wrap;html=1;fillColor=#fff2cc;strokeColor=#d6b656;fontFamily=Times New Roman;fontSize=18;" parent="1" vertex="1">
          <mxGeometry x="35" y="170" width="90" height="60" as="geometry" />
        </mxCell>
        <mxCell id="fZ35gPJdgRmd73TTye3Q-49" style="rounded=0;orthogonalLoop=1;jettySize=auto;html=1;endArrow=none;endFill=0;fontFamily=Times New Roman;fontSize=18;" parent="1" source="fZ35gPJdgRmd73TTye3Q-7" target="fZ35gPJdgRmd73TTye3Q-3" edge="1">
          <mxGeometry relative="1" as="geometry">
            <mxPoint x="205" y="120" as="targetPoint" />
          </mxGeometry>
        </mxCell>
        <mxCell id="fZ35gPJdgRmd73TTye3Q-7" value="username" style="ellipse;whiteSpace=wrap;html=1;fillColor=#fff2cc;strokeColor=#d6b656;fontFamily=Times New Roman;fontSize=18;" parent="1" vertex="1">
          <mxGeometry x="215" y="10" width="90" height="60" as="geometry" />
        </mxCell>
        <mxCell id="fZ35gPJdgRmd73TTye3Q-52" style="rounded=0;orthogonalLoop=1;jettySize=auto;html=1;endArrow=none;endFill=0;fontFamily=Times New Roman;fontSize=18;" parent="1" source="fZ35gPJdgRmd73TTye3Q-8" target="fZ35gPJdgRmd73TTye3Q-3" edge="1">
          <mxGeometry relative="1" as="geometry" />
        </mxCell>
        <mxCell id="fZ35gPJdgRmd73TTye3Q-8" value="age" style="ellipse;whiteSpace=wrap;html=1;fillColor=#fff2cc;strokeColor=#d6b656;fontFamily=Times New Roman;fontSize=18;" parent="1" vertex="1">
          <mxGeometry x="215" y="260" width="90" height="60" as="geometry" />
        </mxCell>
        <mxCell id="fZ35gPJdgRmd73TTye3Q-50" style="rounded=0;orthogonalLoop=1;jettySize=auto;html=1;endArrow=none;endFill=0;fontFamily=Times New Roman;fontSize=18;" parent="1" source="fZ35gPJdgRmd73TTye3Q-9" target="fZ35gPJdgRmd73TTye3Q-3" edge="1">
          <mxGeometry relative="1" as="geometry" />
        </mxCell>
        <mxCell id="fZ35gPJdgRmd73TTye3Q-9" value="password" style="ellipse;whiteSpace=wrap;html=1;fillColor=#fff2cc;strokeColor=#d6b656;fontFamily=Times New Roman;fontSize=18;" parent="1" vertex="1">
          <mxGeometry x="285" y="80" width="90" height="60" as="geometry" />
        </mxCell>
        <mxCell id="fZ35gPJdgRmd73TTye3Q-51" style="rounded=0;orthogonalLoop=1;jettySize=auto;html=1;endArrow=none;endFill=0;fontFamily=Times New Roman;fontSize=18;" parent="1" source="fZ35gPJdgRmd73TTye3Q-10" target="fZ35gPJdgRmd73TTye3Q-3" edge="1">
          <mxGeometry relative="1" as="geometry" />
        </mxCell>
        <mxCell id="fZ35gPJdgRmd73TTye3Q-10" value="phone_number" style="ellipse;whiteSpace=wrap;html=1;fillColor=#fff2cc;strokeColor=#d6b656;fontFamily=Times New Roman;fontSize=18;" parent="1" vertex="1">
          <mxGeometry x="285" y="170" width="125" height="70" as="geometry" />
        </mxCell>
        <mxCell id="fZ35gPJdgRmd73TTye3Q-42" style="edgeStyle=orthogonalEdgeStyle;rounded=0;orthogonalLoop=1;jettySize=auto;html=1;entryX=0;entryY=0.5;entryDx=0;entryDy=0;endArrow=ERzeroToMany;endFill=0;fontFamily=Times New Roman;fontSize=18;" parent="1" source="fZ35gPJdgRmd73TTye3Q-11" target="fZ35gPJdgRmd73TTye3Q-13" edge="1">
          <mxGeometry relative="1" as="geometry" />
        </mxCell>
        <mxCell id="fZ35gPJdgRmd73TTye3Q-74" style="edgeStyle=orthogonalEdgeStyle;rounded=0;orthogonalLoop=1;jettySize=auto;html=1;entryX=0;entryY=0.5;entryDx=0;entryDy=0;exitX=0.5;exitY=1;exitDx=0;exitDy=0;endArrow=ERzeroToMany;endFill=0;fontFamily=Times New Roman;fontSize=18;" parent="1" source="fZ35gPJdgRmd73TTye3Q-11" target="fZ35gPJdgRmd73TTye3Q-22" edge="1">
          <mxGeometry relative="1" as="geometry" />
        </mxCell>
        <mxCell id="fZ35gPJdgRmd73TTye3Q-11" value="Posts" style="rhombus;whiteSpace=wrap;html=1;fillColor=#dae8fc;strokeColor=#6c8ebf;fontFamily=Times New Roman;fontSize=18;" parent="1" vertex="1">
          <mxGeometry x="420" y="110" width="110" height="80" as="geometry" />
        </mxCell>
        <mxCell id="fZ35gPJdgRmd73TTye3Q-55" style="rounded=0;orthogonalLoop=1;jettySize=auto;html=1;endArrow=none;endFill=0;fontFamily=Times New Roman;fontSize=18;" parent="1" source="fZ35gPJdgRmd73TTye3Q-12" target="fZ35gPJdgRmd73TTye3Q-13" edge="1">
          <mxGeometry relative="1" as="geometry" />
        </mxCell>
        <mxCell id="fZ35gPJdgRmd73TTye3Q-12" value="title" style="ellipse;whiteSpace=wrap;html=1;fillColor=#fff2cc;strokeColor=#d6b656;fontFamily=Times New Roman;fontSize=18;" parent="1" vertex="1">
          <mxGeometry x="630" y="10" width="90" height="60" as="geometry" />
        </mxCell>
        <mxCell id="fZ35gPJdgRmd73TTye3Q-61" style="edgeStyle=orthogonalEdgeStyle;rounded=0;orthogonalLoop=1;jettySize=auto;html=1;endArrow=none;endFill=0;startArrow=ERone;startFill=0;fontFamily=Times New Roman;fontSize=18;" parent="1" source="fZ35gPJdgRmd73TTye3Q-13" target="fZ35gPJdgRmd73TTye3Q-60" edge="1">
          <mxGeometry relative="1" as="geometry" />
        </mxCell>
        <mxCell id="fZ35gPJdgRmd73TTye3Q-13" value="Photos" style="rounded=0;whiteSpace=wrap;html=1;fillColor=#d5e8d4;strokeColor=#82b366;fontFamily=Times New Roman;fontSize=20;" parent="1" vertex="1">
          <mxGeometry x="597" y="120" width="120" height="60" as="geometry" />
        </mxCell>
        <mxCell id="fZ35gPJdgRmd73TTye3Q-56" style="rounded=0;orthogonalLoop=1;jettySize=auto;html=1;endArrow=none;endFill=0;fontFamily=Times New Roman;fontSize=18;" parent="1" source="fZ35gPJdgRmd73TTye3Q-17" target="fZ35gPJdgRmd73TTye3Q-13" edge="1">
          <mxGeometry relative="1" as="geometry" />
        </mxCell>
        <mxCell id="fZ35gPJdgRmd73TTye3Q-17" value="caption" style="ellipse;whiteSpace=wrap;html=1;fillColor=#fff2cc;strokeColor=#d6b656;fontFamily=Times New Roman;fontSize=18;" parent="1" vertex="1">
          <mxGeometry x="727" y="20" width="90" height="60" as="geometry" />
        </mxCell>
        <mxCell id="fZ35gPJdgRmd73TTye3Q-59" style="rounded=0;orthogonalLoop=1;jettySize=auto;html=1;endArrow=none;endFill=0;fontFamily=Times New Roman;fontSize=18;exitX=0.806;exitY=0.883;exitDx=0;exitDy=0;exitPerimeter=0;" parent="1" source="IUIOvTR8oRRi9DIpztRd-20" target="fZ35gPJdgRmd73TTye3Q-13" edge="1">
          <mxGeometry relative="1" as="geometry">
            <mxPoint x="596.5336965321155" y="76.34219187423855" as="sourcePoint" />
          </mxGeometry>
        </mxCell>
        <mxCell id="fZ35gPJdgRmd73TTye3Q-57" style="rounded=0;orthogonalLoop=1;jettySize=auto;html=1;endArrow=none;endFill=0;fontFamily=Times New Roman;fontSize=18;" parent="1" source="fZ35gPJdgRmd73TTye3Q-19" target="fZ35gPJdgRmd73TTye3Q-13" edge="1">
          <mxGeometry relative="1" as="geometry" />
        </mxCell>
        <mxCell id="fZ35gPJdgRmd73TTye3Q-19" value="poster_image&lt;div style=&quot;font-size: 18px;&quot;&gt;_url&lt;/div&gt;" style="ellipse;whiteSpace=wrap;html=1;fillColor=#fff2cc;strokeColor=#d6b656;fontFamily=Times New Roman;fontSize=18;" parent="1" vertex="1">
          <mxGeometry x="750" y="90" width="110" height="70" as="geometry" />
        </mxCell>
        <mxCell id="fZ35gPJdgRmd73TTye3Q-58" style="rounded=0;orthogonalLoop=1;jettySize=auto;html=1;endArrow=none;endFill=0;fontFamily=Times New Roman;fontSize=18;exitX=0.005;exitY=0.433;exitDx=0;exitDy=0;exitPerimeter=0;" parent="1" source="IUIOvTR8oRRi9DIpztRd-22" target="fZ35gPJdgRmd73TTye3Q-13" edge="1">
          <mxGeometry relative="1" as="geometry">
            <mxPoint x="741.6799999999998" y="187.33999999999992" as="sourcePoint" />
          </mxGeometry>
        </mxCell>
        <mxCell id="RsGstZR8MFact_CmgCE6-6" style="rounded=0;orthogonalLoop=1;jettySize=auto;html=1;exitX=0.25;exitY=1;exitDx=0;exitDy=0;endArrow=none;endFill=0;fontFamily=Times New Roman;fontSize=18;" parent="1" source="fZ35gPJdgRmd73TTye3Q-22" target="RsGstZR8MFact_CmgCE6-4" edge="1">
          <mxGeometry relative="1" as="geometry" />
        </mxCell>
        <mxCell id="fZ35gPJdgRmd73TTye3Q-22" value="Comments" style="rounded=0;whiteSpace=wrap;html=1;fillColor=#d5e8d4;strokeColor=#82b366;fontFamily=Times New Roman;fontSize=20;" parent="1" vertex="1">
          <mxGeometry x="597" y="360" width="120" height="60" as="geometry" />
        </mxCell>
        <mxCell id="fZ35gPJdgRmd73TTye3Q-63" style="rounded=0;orthogonalLoop=1;jettySize=auto;html=1;endArrow=none;endFill=0;fontFamily=Times New Roman;fontSize=18;" parent="1" source="fZ35gPJdgRmd73TTye3Q-23" target="fZ35gPJdgRmd73TTye3Q-22" edge="1">
          <mxGeometry relative="1" as="geometry" />
        </mxCell>
        <mxCell id="fZ35gPJdgRmd73TTye3Q-23" value="comment" style="ellipse;whiteSpace=wrap;html=1;fillColor=#fff2cc;strokeColor=#d6b656;fontFamily=Times New Roman;fontSize=18;" parent="1" vertex="1">
          <mxGeometry x="612" y="470" width="90" height="60" as="geometry" />
        </mxCell>
        <mxCell id="fZ35gPJdgRmd73TTye3Q-64" style="rounded=0;orthogonalLoop=1;jettySize=auto;html=1;endArrow=none;endFill=0;fontFamily=Times New Roman;fontSize=18;" parent="1" source="fZ35gPJdgRmd73TTye3Q-25" target="fZ35gPJdgRmd73TTye3Q-22" edge="1">
          <mxGeometry relative="1" as="geometry" />
        </mxCell>
        <mxCell id="fZ35gPJdgRmd73TTye3Q-25" value="PhotoId" style="ellipse;whiteSpace=wrap;html=1;fillColor=#fff2cc;strokeColor=#d6b656;fontFamily=Times New Roman;fontSize=18;" parent="1" vertex="1">
          <mxGeometry x="712" y="450" width="90" height="60" as="geometry" />
        </mxCell>
        <mxCell id="fZ35gPJdgRmd73TTye3Q-65" style="rounded=0;orthogonalLoop=1;jettySize=auto;html=1;endArrow=none;endFill=0;fontFamily=Times New Roman;fontSize=18;exitX=0.015;exitY=0.439;exitDx=0;exitDy=0;exitPerimeter=0;" parent="1" source="IUIOvTR8oRRi9DIpztRd-7" target="fZ35gPJdgRmd73TTye3Q-22" edge="1">
          <mxGeometry relative="1" as="geometry">
            <mxPoint x="738.1523961937364" y="403.2542147990364" as="sourcePoint" />
          </mxGeometry>
        </mxCell>
        <mxCell id="fZ35gPJdgRmd73TTye3Q-68" style="rounded=0;orthogonalLoop=1;jettySize=auto;html=1;endArrow=none;endFill=0;fontFamily=Times New Roman;fontSize=18;exitX=0.09;exitY=0.791;exitDx=0;exitDy=0;exitPerimeter=0;" parent="1" source="IUIOvTR8oRRi9DIpztRd-18" target="fZ35gPJdgRmd73TTye3Q-22" edge="1">
          <mxGeometry relative="1" as="geometry">
            <mxPoint x="737.00517609177" y="356.07473319194355" as="sourcePoint" />
          </mxGeometry>
        </mxCell>
        <mxCell id="fZ35gPJdgRmd73TTye3Q-30" value="Social Media" style="rounded=0;whiteSpace=wrap;html=1;fillColor=#d5e8d4;strokeColor=#82b366;fontFamily=Times New Roman;fontSize=20;" parent="1" vertex="1">
          <mxGeometry x="145" y="478" width="120" height="60" as="geometry" />
        </mxCell>
        <mxCell id="fZ35gPJdgRmd73TTye3Q-36" style="rounded=0;orthogonalLoop=1;jettySize=auto;html=1;endArrow=none;endFill=0;fontFamily=Times New Roman;fontSize=18;" parent="1" source="fZ35gPJdgRmd73TTye3Q-31" target="fZ35gPJdgRmd73TTye3Q-30" edge="1">
          <mxGeometry relative="1" as="geometry" />
        </mxCell>
        <mxCell id="fZ35gPJdgRmd73TTye3Q-31" value="name" style="ellipse;whiteSpace=wrap;html=1;fillColor=#fff2cc;strokeColor=#d6b656;fontFamily=Times New Roman;fontSize=18;" parent="1" vertex="1">
          <mxGeometry x="25" y="498" width="90" height="60" as="geometry" />
        </mxCell>
        <mxCell id="fZ35gPJdgRmd73TTye3Q-39" style="rounded=0;orthogonalLoop=1;jettySize=auto;html=1;endArrow=none;endFill=0;fontFamily=Times New Roman;fontSize=18;exitX=0.911;exitY=0.776;exitDx=0;exitDy=0;exitPerimeter=0;" parent="1" source="IUIOvTR8oRRi9DIpztRd-16" target="fZ35gPJdgRmd73TTye3Q-30" edge="1">
          <mxGeometry relative="1" as="geometry">
            <mxPoint x="118.63235668809193" y="473.38456682269145" as="sourcePoint" />
          </mxGeometry>
        </mxCell>
        <mxCell id="fZ35gPJdgRmd73TTye3Q-38" style="rounded=0;orthogonalLoop=1;jettySize=auto;html=1;endArrow=none;endFill=0;fontFamily=Times New Roman;fontSize=18;" parent="1" source="fZ35gPJdgRmd73TTye3Q-33" target="fZ35gPJdgRmd73TTye3Q-30" edge="1">
          <mxGeometry relative="1" as="geometry" />
        </mxCell>
        <mxCell id="fZ35gPJdgRmd73TTye3Q-33" value="&lt;span style=&quot;font-size: 18px;&quot;&gt;UserId&lt;/span&gt;" style="ellipse;whiteSpace=wrap;html=1;fillColor=#fff2cc;strokeColor=#d6b656;fontFamily=Times New Roman;fontSize=18;" parent="1" vertex="1">
          <mxGeometry x="295" y="498" width="90" height="60" as="geometry" />
        </mxCell>
        <mxCell id="fZ35gPJdgRmd73TTye3Q-40" style="rounded=0;orthogonalLoop=1;jettySize=auto;html=1;endArrow=none;endFill=0;fontFamily=Times New Roman;fontSize=18;" parent="1" source="fZ35gPJdgRmd73TTye3Q-34" target="fZ35gPJdgRmd73TTye3Q-30" edge="1">
          <mxGeometry relative="1" as="geometry" />
        </mxCell>
        <mxCell id="fZ35gPJdgRmd73TTye3Q-34" value="social_media&lt;div style=&quot;font-size: 18px;&quot;&gt;_url&lt;/div&gt;" style="ellipse;whiteSpace=wrap;html=1;fillColor=#fff2cc;strokeColor=#d6b656;fontFamily=Times New Roman;fontSize=18;" parent="1" vertex="1">
          <mxGeometry x="285" y="430" width="115" height="58" as="geometry" />
        </mxCell>
        <mxCell id="fZ35gPJdgRmd73TTye3Q-62" style="edgeStyle=orthogonalEdgeStyle;rounded=0;orthogonalLoop=1;jettySize=auto;html=1;endArrow=ERzeroToMany;endFill=0;fontFamily=Times New Roman;fontSize=18;" parent="1" source="fZ35gPJdgRmd73TTye3Q-60" target="fZ35gPJdgRmd73TTye3Q-22" edge="1">
          <mxGeometry relative="1" as="geometry" />
        </mxCell>
        <mxCell id="fZ35gPJdgRmd73TTye3Q-60" value="Has" style="rhombus;whiteSpace=wrap;html=1;fillColor=#dae8fc;strokeColor=#6c8ebf;fontFamily=Times New Roman;fontSize=18;" parent="1" vertex="1">
          <mxGeometry x="602" y="230" width="110" height="80" as="geometry" />
        </mxCell>
        <mxCell id="fZ35gPJdgRmd73TTye3Q-71" style="edgeStyle=orthogonalEdgeStyle;rounded=0;orthogonalLoop=1;jettySize=auto;html=1;endArrow=ERzeroToMany;endFill=0;fontFamily=Times New Roman;fontSize=18;" parent="1" source="fZ35gPJdgRmd73TTye3Q-69" target="fZ35gPJdgRmd73TTye3Q-30" edge="1">
          <mxGeometry relative="1" as="geometry" />
        </mxCell>
        <mxCell id="fZ35gPJdgRmd73TTye3Q-69" value="Has" style="rhombus;whiteSpace=wrap;html=1;fillColor=#dae8fc;strokeColor=#6c8ebf;fontFamily=Times New Roman;fontSize=18;" parent="1" vertex="1">
          <mxGeometry x="150" y="358" width="110" height="80" as="geometry" />
        </mxCell>
        <mxCell id="RsGstZR8MFact_CmgCE6-1" value="" style="endArrow=none;html=1;rounded=0;fontFamily=Times New Roman;fontSize=18;" parent="1" edge="1">
          <mxGeometry width="50" height="50" relative="1" as="geometry">
            <mxPoint x="315" y="538" as="sourcePoint" />
            <mxPoint x="365" y="538" as="targetPoint" />
          </mxGeometry>
        </mxCell>
        <mxCell id="RsGstZR8MFact_CmgCE6-4" value="&lt;span style=&quot;font-size: 18px;&quot;&gt;PhotoId&lt;/span&gt;" style="ellipse;whiteSpace=wrap;html=1;fillColor=#fff2cc;strokeColor=#d6b656;fontFamily=Times New Roman;fontSize=18;" parent="1" vertex="1">
          <mxGeometry x="500" y="460" width="90" height="60" as="geometry" />
        </mxCell>
        <mxCell id="IUIOvTR8oRRi9DIpztRd-2" value="" style="endArrow=none;html=1;rounded=0;fontFamily=Times New Roman;fontSize=18;" edge="1" parent="1">
          <mxGeometry width="50" height="50" relative="1" as="geometry">
            <mxPoint x="315" y="541" as="sourcePoint" />
            <mxPoint x="365" y="541" as="targetPoint" />
          </mxGeometry>
        </mxCell>
        <mxCell id="IUIOvTR8oRRi9DIpztRd-3" value="" style="endArrow=none;html=1;rounded=0;fontFamily=Times New Roman;fontSize=18;" edge="1" parent="1">
          <mxGeometry width="50" height="50" relative="1" as="geometry">
            <mxPoint x="515" y="500.39" as="sourcePoint" />
            <mxPoint x="575" y="500.39" as="targetPoint" />
          </mxGeometry>
        </mxCell>
        <mxCell id="IUIOvTR8oRRi9DIpztRd-4" value="" style="endArrow=none;html=1;rounded=0;fontFamily=Times New Roman;fontSize=18;" edge="1" parent="1">
          <mxGeometry width="50" height="50" relative="1" as="geometry">
            <mxPoint x="515" y="503.39" as="sourcePoint" />
            <mxPoint x="575" y="503.39" as="targetPoint" />
          </mxGeometry>
        </mxCell>
        <mxCell id="IUIOvTR8oRRi9DIpztRd-7" value="&lt;span style=&quot;font-size: 18px;&quot;&gt;UserId&lt;/span&gt;" style="ellipse;whiteSpace=wrap;html=1;fillColor=#fff2cc;strokeColor=#d6b656;fontFamily=Times New Roman;fontSize=18;" vertex="1" parent="1">
          <mxGeometry x="737" y="378" width="90" height="60" as="geometry" />
        </mxCell>
        <mxCell id="IUIOvTR8oRRi9DIpztRd-8" value="" style="endArrow=none;html=1;rounded=0;fontFamily=Times New Roman;fontSize=18;" edge="1" parent="1">
          <mxGeometry width="50" height="50" relative="1" as="geometry">
            <mxPoint x="757" y="418" as="sourcePoint" />
            <mxPoint x="807" y="418" as="targetPoint" />
          </mxGeometry>
        </mxCell>
        <mxCell id="IUIOvTR8oRRi9DIpztRd-9" value="" style="endArrow=none;html=1;rounded=0;fontFamily=Times New Roman;fontSize=18;" edge="1" parent="1">
          <mxGeometry width="50" height="50" relative="1" as="geometry">
            <mxPoint x="757" y="421" as="sourcePoint" />
            <mxPoint x="807" y="421" as="targetPoint" />
          </mxGeometry>
        </mxCell>
        <mxCell id="IUIOvTR8oRRi9DIpztRd-15" value="" style="endArrow=none;html=1;rounded=0;" edge="1" parent="1">
          <mxGeometry width="50" height="50" relative="1" as="geometry">
            <mxPoint x="70" y="120" as="sourcePoint" />
            <mxPoint x="90" y="120" as="targetPoint" />
          </mxGeometry>
        </mxCell>
        <mxCell id="IUIOvTR8oRRi9DIpztRd-16" value="&lt;span style=&quot;font-size: 18px;&quot;&gt;id&lt;/span&gt;" style="ellipse;whiteSpace=wrap;html=1;fillColor=#fff2cc;strokeColor=#d6b656;fontFamily=Times New Roman;fontSize=18;" vertex="1" parent="1">
          <mxGeometry x="35" y="428" width="90" height="60" as="geometry" />
        </mxCell>
        <mxCell id="IUIOvTR8oRRi9DIpztRd-17" value="" style="endArrow=none;html=1;rounded=0;" edge="1" parent="1">
          <mxGeometry width="50" height="50" relative="1" as="geometry">
            <mxPoint x="70" y="468" as="sourcePoint" />
            <mxPoint x="90" y="468" as="targetPoint" />
          </mxGeometry>
        </mxCell>
        <mxCell id="IUIOvTR8oRRi9DIpztRd-18" value="&lt;span style=&quot;font-size: 18px;&quot;&gt;id&lt;/span&gt;" style="ellipse;whiteSpace=wrap;html=1;fillColor=#fff2cc;strokeColor=#d6b656;fontFamily=Times New Roman;fontSize=18;" vertex="1" parent="1">
          <mxGeometry x="727" y="310" width="90" height="60" as="geometry" />
        </mxCell>
        <mxCell id="IUIOvTR8oRRi9DIpztRd-19" value="" style="endArrow=none;html=1;rounded=0;" edge="1" parent="1">
          <mxGeometry width="50" height="50" relative="1" as="geometry">
            <mxPoint x="762" y="350" as="sourcePoint" />
            <mxPoint x="782" y="350" as="targetPoint" />
          </mxGeometry>
        </mxCell>
        <mxCell id="IUIOvTR8oRRi9DIpztRd-20" value="&lt;span style=&quot;font-size: 18px;&quot;&gt;id&lt;/span&gt;" style="ellipse;whiteSpace=wrap;html=1;fillColor=#fff2cc;strokeColor=#d6b656;fontFamily=Times New Roman;fontSize=18;" vertex="1" parent="1">
          <mxGeometry x="522" y="20" width="90" height="60" as="geometry" />
        </mxCell>
        <mxCell id="IUIOvTR8oRRi9DIpztRd-21" value="" style="endArrow=none;html=1;rounded=0;" edge="1" parent="1">
          <mxGeometry width="50" height="50" relative="1" as="geometry">
            <mxPoint x="557" y="60" as="sourcePoint" />
            <mxPoint x="577" y="60" as="targetPoint" />
          </mxGeometry>
        </mxCell>
        <mxCell id="IUIOvTR8oRRi9DIpztRd-22" value="&lt;span style=&quot;font-size: 18px;&quot;&gt;UserId&lt;/span&gt;" style="ellipse;whiteSpace=wrap;html=1;fillColor=#fff2cc;strokeColor=#d6b656;fontFamily=Times New Roman;fontSize=18;" vertex="1" parent="1">
          <mxGeometry x="750" y="170" width="90" height="60" as="geometry" />
        </mxCell>
        <mxCell id="IUIOvTR8oRRi9DIpztRd-23" value="" style="endArrow=none;html=1;rounded=0;fontFamily=Times New Roman;fontSize=18;" edge="1" parent="1">
          <mxGeometry width="50" height="50" relative="1" as="geometry">
            <mxPoint x="770" y="210" as="sourcePoint" />
            <mxPoint x="820" y="210" as="targetPoint" />
          </mxGeometry>
        </mxCell>
        <mxCell id="IUIOvTR8oRRi9DIpztRd-24" value="" style="endArrow=none;html=1;rounded=0;fontFamily=Times New Roman;fontSize=18;" edge="1" parent="1">
          <mxGeometry width="50" height="50" relative="1" as="geometry">
            <mxPoint x="770" y="213" as="sourcePoint" />
            <mxPoint x="820" y="213" as="targetPoint" />
          </mxGeometry>
        </mxCell>
      </root>
    </mxGraphModel>
  </diagram>
</mxfile>
